<svg version="1.1" id="Layer_1" xmlns="http://www.w3.org/2000/svg" xmlns:xlink="http://www.w3.org/1999/xlink" x="0px" y="0px" width="100%" viewBox="0 0 500 500" enable-background="new 0 0 500 500" xml:space="preserve"><path fill="#000000" opacity="1.000000" stroke="none" d="M348.109375,468.066132 C312.535828,484.218445 275.555206,490.709167 236.193954,488.750458 C236.193954,485.286926 236.193954,481.869781 236.193954,478.452667 C236.193954,474.995850 236.193954,471.539001 236.193954,467.799805 C302.364380,470.220337 359.320496,449.264771 405.716797,402.241180 C441.556854,365.916534 462.293701,321.852600 466.824310,271.002625 C476.612610,161.141678 406.524506,65.740341 304.843109,39.547760 C201.432419,12.909719 97.451462,63.007103 52.492962,158.844467 C9.597693,250.283661 36.979515,359.424438 115.934296,421.310547 C115.934296,419.042938 115.934181,417.357330 115.934311,415.671722 C115.938454,359.674622 115.848503,303.677307 115.971420,247.680496 C116.114243,182.615265 162.368820,127.985336 226.805466,118.420776 C294.977814,108.301720 350.651611,140.458038 373.870789,197.079590 C405.426147,274.029541 367.125580,354.741272 292.589508,379.388855 C278.737427,383.969452 264.359406,385.690521 249.769638,385.509918 C245.600525,385.458313 241.553238,384.849030 239.986908,380.244202 C238.338989,375.399506 237.409241,369.912384 241.062820,366.043610 C243.151978,363.831390 247.555817,363.047363 250.954407,362.953247 C271.852020,362.374420 291.372040,357.371552 309.075348,345.998383 C358.674896,314.134094 376.827240,252.024963 349.510742,200.301712 C327.663208,158.933838 292.035034,138.659744 244.590561,139.748322 C193.154495,140.928497 151.258774,180.568436 141.659378,224.351273 C139.715469,233.217392 138.840012,242.487701 138.809219,251.576218 C138.579376,319.405243 138.686066,387.235413 138.687241,455.065247 C138.687271,456.879486 138.687241,458.693726 138.687241,461.078613 C137.203690,460.444824 136.008041,460.070007 134.946625,459.461182 C68.248459,421.203217 26.879545,364.413696 14.540660,288.544434 C2.496917,214.489899 21.995661,148.256271 71.682915,91.703621 C106.390305,52.200653 150.023026,26.894165 201.466766,16.451338 C263.026917,3.954924 321.557098,13.215982 375.030579,46.862995 C439.565887,87.470428 477.587524,145.980774 486.964081,221.806900 C495.942169,294.411011 474.388397,357.868713 425.569153,412.098480 C403.893616,436.176270 377.809784,454.353760 348.109375,468.066132 z"/></svg>